# xmcd
#
# Track frame offsets:
#	150
#	11070
#	26836
#	38586
#	51620
#	64400
#	76043
#	86083
#	94740
#	108524
#	120667
#	136580
#	148486
#	167330
#	183012
#
# Disc length: 2575 seconds
#
# Revision: 0
# Processed by: cddbd v1.5.1PL0 Copyright (c) Steve Scherf et al.
# Submitted via: dBpowerAMP V4.0
#
DISCID=c60a0d0f
DTITLE=Various Artist - Christmas Time
DYEAR=2004
DGENRE=Country
TTITLE0=White Christmas -Elvis Presley
TTITLE1=Away in a Manger - Mahalia Jackson
TTITLE2=Merry Christmas , All - Brook Benton
TTITLE3=Joy to the World - The Platters
TTITLE4=Its beginning to look a lot like Christmas - Bing Crosby
TTITLE5=Santa Claus is coming to town - Frank Sinatra
TTITLE6=Jingle Bells - Nat King Cole
TTITLE7=Frosty The Snowman - Gene Autry
TTITLE8=Silver Bells - Rosemary Cloony and Bing Crosby
TTITLE9=Ave Maria - Mario Lanza
TTITLE10=Hark ! The Hearld Angels Sing - Julie Andrews
TTITLE11=Oh Holy Night - Luciano Pavarotti
TTITLE12=Have yourself A Mery Christmas - Rosemary Clooney
TTITLE13=Sleigh Ride - The Three Degrees 
TTITLE14=Auld Langs Syne - The Driffters
EXTD=Christmas Time
EXTT0=
EXTT1=
EXTT2=
EXTT3=
EXTT4=
EXTT5=
EXTT6=
EXTT7=
EXTT8=
EXTT9=
EXTT10=
EXTT11=
EXTT12=
EXTT13=
EXTT14=
PLAYORDER=
